<?xml version="1.0" standalone="no"?>
<!DOCTYPE svg PUBLIC "-//W3C//DTD SVG 20010904//EN"
 "http://www.w3.org/TR/2001/REC-SVG-20010904/DTD/svg10.dtd">
<svg version="1.0" xmlns="http://www.w3.org/2000/svg"
 width="225.000000pt" height="225.000000pt" viewBox="0 0 225.000000 225.000000"
 preserveAspectRatio="xMidYMid meet">

<g transform="translate(0.000000,225.000000) scale(0.100000,-0.100000)"
fill="#000000" stroke="none">
<path d="M1262 1919 c-64 -11 -270 -94 -647 -260 l-280 -124 403 -5 c434 -5
404 -2 437 -54 8 -13 60 15 339 188 180 112 333 209 338 214 7 7 0 17 -23 31
-32 20 -48 21 -274 20 -132 -1 -264 -5 -293 -10z"/>
<path d="M1462 1607 c-216 -134 -397 -248 -403 -254 -7 -7 14 -71 66 -201 l77
-191 256 241 257 241 7 70 6 70 86 86 86 87 -16 47 c-9 26 -19 47 -22 47 -4 0
-184 -110 -400 -243z"/>
<path d="M1788 1615 c-46 -51 -48 -55 -48 -113 l0 -60 -266 -248 c-147 -137
-269 -249 -273 -248 -3 0 -14 16 -23 35 l-18 34 0 -58 c0 -48 -4 -62 -25 -82
-29 -29 -3 -29 -385 -14 -310 12 -324 14 -354 62 -13 21 -56 371 -56 459 0 42
6 45 90 51 27 2 15 4 -30 5 -107 2 -268 -14 -285 -28 -19 -15 -14 -35 40 -170
47 -116 112 -250 122 -250 3 0 21 12 40 26 19 14 36 24 39 21 3 -2 8 -27 13
-55 10 -62 30 -95 68 -110 15 -6 137 -15 270 -19 133 -5 245 -12 248 -15 4 -3
10 -68 14 -143 7 -113 11 -141 28 -163 38 -51 175 -47 198 6 7 17 18 22 45 22
19 1 163 9 320 19 157 10 288 16 291 12 4 -3 11 -33 18 -66 25 -134 23 -131
109 -159 42 -14 80 -26 84 -26 3 0 -3 24 -15 53 -19 47 -21 72 -22 262 0 231
10 296 51 341 14 14 24 28 22 29 -2 2 -42 7 -89 11 -79 6 -88 5 -107 -14 -23
-23 -52 -109 -52 -153 0 -33 15 -30 -310 -59 -124 -11 -249 -23 -278 -26 l-54
-6 7 34 c20 100 18 98 217 287 106 101 246 236 311 299 113 111 117 117 116
156 0 23 -6 57 -12 77 l-12 36 -47 -52z"/>
<path d="M215 1479 c-44 -22 -69 -37 -55 -33 34 10 483 6 656 -5 142 -9 193
-22 212 -57 7 -13 18 -9 75 26 66 42 67 42 52 69 -13 26 -20 28 -91 34 -42 4
-233 7 -423 6 l-346 -1 -80 -39z"/>
<path d="M477 1333 c-4 -3 -7 -25 -7 -47 1 -63 37 -317 47 -327 4 -4 114 -10
243 -11 l235 -3 3 27 c4 37 -36 312 -50 343 l-11 25 -227 0 c-125 0 -230 -3
-233 -7z m321 -99 c31 -21 53 -75 46 -113 -9 -41 -66 -91 -105 -91 -90 0 -150
100 -102 170 40 58 103 71 161 34z"/>
<path d="M666 1215 c-14 -13 -26 -27 -26 -32 0 -4 5 -2 12 5 30 30 78 0 58
-37 -12 -24 -48 -28 -56 -6 -8 20 -24 19 -24 0 0 -52 73 -113 117 -99 61 20
83 48 83 105 0 76 -106 118 -164 64z"/>
<path d="M2087 980 c-34 -40 -50 -141 -50 -320 -1 -148 19 -275 47 -312 19
-25 60 -32 76 -13 17 21 9 619 -9 653 -16 30 -34 28 -64 -8z"/>
</g>
</svg>
