<?xml version="1.0"?>
<svg width="225" height="225" xmlns="http://www.w3.org/2000/svg" xmlns:svg="http://www.w3.org/2000/svg" preserveAspectRatio="xMidYMid meet" version="1.0">
 <g class="layer">
  <title>Layer 1</title>
  <g fill="#000000" id="svg_1" transform="matrix(0.1 0 0 -0.1 0 0)">
   <path d="m1262,-331c-64,-11 -270,-94 -647,-260l-280,-124l403,-5c434,-5 404,-2 437,-54c8,-13 60,15 339,188c180,112 333,209 338,214c7,7 0,17 -23,31c-32,20 -48,21 -274,20c-132,-1 -264,-5 -293,-10z" fill="#ff0000" id="svg_2"/>
   <path d="m1462,-643c-216,-134 -397,-248 -403,-254c-7,-7 14,-71 66,-201l77,-191l256,241l257,241l7,70l6,70l86,86l86,87l-16,47c-9,26 -19,47 -22,47c-4,0 -184,-110 -400,-243z" fill="#ff0000" id="svg_3"/>
   <path d="m1788,-635c-46,-51 -48,-55 -48,-113l0,-60l-266,-248c-147,-137 -269,-249 -273,-248c-3,0 -14,16 -23,35l-18,34l0,-58c0,-48 -4,-62 -25,-82c-29,-29 -3,-29 -385,-14c-310,12 -324,14 -354,62c-13,21 -56,371 -56,459c0,42 6,45 90,51c27,2 15,4 -30,5c-107,2 -268,-14 -285,-28c-19,-15 -14,-35 40,-170c47,-116 112,-250 122,-250c3,0 21,12 40,26c19,14 36,24 39,21c3,-2 8,-27 13,-55c10,-62 30,-95 68,-110c15,-6 137,-15 270,-19c133,-5 245,-12 248,-15c4,-3 10,-68 14,-143c7,-113 11,-141 28,-163c38,-51 175,-47 198,6c7,17 18,22 45,22c19,1 163,9 320,19c157,10 288,16 291,12c4,-3 11,-33 18,-66c25,-134 23,-131 109,-159c42,-14 80,-26 84,-26c3,0 -3,24 -15,53c-19,47 -21,72 -22,262c0,231 10,296 51,341c14,14 24,28 22,29c-2,2 -42,7 -89,11c-79,6 -88,5 -107,-14c-23,-23 -52,-109 -52,-153c0,-33 15,-30 -310,-59c-124,-11 -249,-23 -278,-26l-54,-6l7,34c20,100 18,98 217,287c106,101 246,236 311,299c113,111 117,117 116,156c0,23 -6,57 -12,77l-12,36l-47,-52z" fill="#ff0000" id="svg_4"/>
   <path d="m215,-771c-44,-22 -69,-37 -55,-33c34,10 483,6 656,-5c142,-9 193,-22 212,-57c7,-13 18,-9 75,26c66,42 67,42 52,69c-13,26 -20,28 -91,34c-42,4 -233,7 -423,6l-346,-1l-80,-39z" fill="#ff0000" id="svg_5"/>
   <path d="m477,-917c-4,-3 -7,-25 -7,-47c1,-63 37,-317 47,-327c4,-4 114,-10 243,-11l235,-3l3,27c4,37 -36,312 -50,343l-11,25l-227,0c-125,0 -230,-3 -233,-7zm321,-99c31,-21 53,-75 46,-113c-9,-41 -66,-91 -105,-91c-90,0 -150,100 -102,170c40,58 103,71 161,34z" fill="#ff0000" id="svg_6"/>
   <path d="m666,-1035c-14,-13 -26,-27 -26,-32c0,-4 5,-2 12,5c30,30 78,0 58,-37c-12,-24 -48,-28 -56,-6c-8,20 -24,19 -24,0c0,-52 73,-113 117,-99c61,20 83,48 83,105c0,76 -106,118 -164,64z" fill="#ff0000" id="svg_7"/>
   <path d="m2087,-1270c-34,-40 -50,-141 -50,-320c-1,-148 19,-275 47,-312c19,-25 60,-32 76,-13c17,21 9,619 -9,653c-16,30 -34,28 -64,-8z" fill="#ff0000" id="svg_8"/>
  </g>
 </g>
</svg>